<?xml version="1.0" encoding="UTF-8"?><svg id="Layer_1" xmlns="http://www.w3.org/2000/svg" xmlns:xlink="http://www.w3.org/1999/xlink" viewBox="0 0 1920 1080"><defs><linearGradient id="linear-gradient" x1="766.34" y1="574.88" x2="1144.63" y2="574.88" gradientTransform="matrix(1, 0, 0, 1, 0, 0)" gradientUnits="userSpaceOnUse"><stop offset="0" stop-color="#0086ff"/><stop offset="1" stop-color="#00dbff"/></linearGradient></defs><circle cx="511" cy="377" r="42.5" fill="#ffc200"/><path d="M1469.49,611.38c28.47,14.96,30.53,54.8,3.89,72.83-1.61,1.09-3.24,2.15-4.89,3.17-19.34,12-43.5,18-72.5,18-18,0-34.09-3-48.25-9-14.17-6-26.25-14.25-36.25-24.75s-17.67-22.83-23-37c-5.34-14.16-8-29.25-8-45.25,0-19,3.5-37.16,10.5-54.5,7-17.33,16.83-32.75,29.5-46.25,12.66-13.5,28-24.25,46-32.25s38-12,60-12c18,0,33.75,2.75,47.25,8.25s24.83,12.92,34,22.25c9.16,9.34,16.08,20.17,20.75,32.5,4.66,12.34,7,25.34,7,39,0,15.67-2.34,30.17-7,43.5h-184.5v5c.66,18,6.58,31.25,17.75,39.75,11.16,8.5,24.25,12.75,39.25,12.75,16,0,29.5-3.08,40.5-9.25,11-6.16,20.33-15.08,28-26.75h0Zm5-68v-2c0-11.33-4.42-21.41-13.25-30.25-8.84-8.83-22.25-13.25-40.25-13.25-16.34,0-30.59,4.42-42.75,13.25-12.17,8.84-20.59,19.59-25.25,32.25h121.5Z" fill="#00dbff"/><path d="M1276.99,611.38c28.47,14.96,30.53,54.8,3.89,72.83-1.61,1.09-3.24,2.15-4.89,3.17-19.34,12-43.5,18-72.5,18-18,0-34.09-3-48.25-9-14.17-6-26.25-14.25-36.25-24.75s-17.67-22.83-23-37c-5.34-14.16-8-29.25-8-45.25,0-19,3.5-37.16,10.5-54.5,7-17.33,16.83-32.75,29.5-46.25,12.66-13.5,28-24.25,46-32.25s38-12,60-12c18,0,33.75,2.75,47.25,8.25s24.83,12.92,34,22.25c9.16,9.34,16.08,20.17,20.75,32.5,4.66,12.34,7,25.34,7,39,0,15.67-2.34,30.17-7,43.5h-184.5v5c.66,18,6.58,31.25,17.75,39.75,11.16,8.5,24.25,12.75,39.25,12.75,16,0,29.5-3.08,40.5-9.25,11-6.16,20.33-15.08,28-26.75h0Zm5-68v-2c0-11.33-4.42-21.41-13.25-30.25-8.84-8.83-22.25-13.25-40.25-13.25-16.34,0-30.59,4.42-42.75,13.25-12.17,8.84-20.59,19.59-25.25,32.25h121.5Z" fill="#00dbff"/><path d="M1574.99,484h4c8.66-12.66,20-22.5,34-29.5s29.5-10.5,46.5-10.5c12.66,0,23.83,2.09,33.5,6.25,9.66,4.17,17.83,9.75,24.5,16.75,6.66,7,11.66,15.25,15,24.75,3.33,9.5,5,19.59,5,30.25,0,4.67-.17,9.5-.5,14.5-.34,5-1,10.34-2,16l-14.49,80.53c-6.66,37.03-38.89,63.97-76.51,63.97h0l25-140.5c.33-1.66,.58-3.91,.75-6.75,.16-2.83,.25-5.58,.25-8.25,0-10.66-3.17-19.5-9.5-26.5-6.34-7-15.84-10.5-28.5-10.5-10,0-18.84,1.84-26.5,5.5-7.67,3.67-14.34,8.75-20,15.25-5.67,6.5-10.34,14.17-14,23-3.67,8.84-6.5,18.42-8.5,28.75l-9.71,55.48c-6.53,37.3-38.92,64.52-76.79,64.52h0l32.37-184.43c6.15-35.03,36.57-60.57,72.13-60.57h0l-6,32Z" fill="#00dbff"/><path d="M441,490.38h0c0,35.35-28.65,64-64,64h-79.5v75.5c0,37.28-30.22,67.5-67.5,67.5h0v-141.1c0-36.39,29.5-65.9,65.9-65.9h145.1Z" fill="#0086ff"/><path d="M230,416h0c0-42.32,34.3-76.62,76.62-76.62h150.38c0,42.32-34.3,76.62-76.62,76.62H230Z" fill="#0086ff"/><path d="M478,697.38v-179.5c0-36.17,29.33-65.5,65.5-65.5h0v179.5c0,36.17-29.33,65.5-65.5,65.5h0Z" fill="#0086ff"/><path d="M614,508.38h-43v-13c0-23.75,19.25-43,43-43h0v-9.5c0-36.17,29.33-65.5,65.5-65.5h0v75h134.5v56h-134.5v97.9c0,5.84,.58,11.26,1.75,16.23,1.16,4.98,3.41,9.19,6.75,12.62,4.66,5.5,11.33,8.24,20,8.24,5.66,0,10.16-.58,13.5-1.75,3.33-1.16,6.5-2.75,9.5-4.75l18.5,57.5c-7.67,3.66-15.92,6.41-24.75,8.25-8.84,1.83-18.59,2.75-29.25,2.75-12.34,0-23.42-1.96-33.25-5.87-9.84-3.91-18.09-9.27-24.75-16.08-15.67-15.31-23.5-37.09-23.5-65.33v-109.73Z" fill="#0086ff"/><path d="M818.7,452.38h0c1.06,0,1.98,.71,2.25,1.73l39.58,150.03c.27,1.02,1.19,1.73,2.25,1.73h0c1.02,0,1.91-.66,2.22-1.63l47.47-150.25c.31-.97,1.2-1.63,2.22-1.63h64.09c1.01,0,1.91,.66,2.22,1.62l47.97,150.26c.31,.97,1.2,1.62,2.22,1.62h0c1.05,0,1.97-.71,2.24-1.73,4.12-15.75,35-134.26,39.11-150.04,.27-1.03,1.19-1.73,2.25-1.73h67.51c1.58,0,2.7,1.54,2.22,3.04l-56.53,176.45c-12.51,39.03-48.8,65.52-89.79,65.52h0c-1.01,0-1.91-.66-2.22-1.62l-47.97-151.25c-.31-.97-1.2-1.62-2.22-1.62h-.09c-1.01,0-1.91,.66-2.22,1.62l-27.99,88.25c-12.2,38.48-47.93,64.63-88.3,64.63h0c-1.01,0-1.91-.65-2.22-1.62l-56.1-175.1c-10.82-33.77,14.37-68.29,49.83-68.29Z" fill="url(#linear-gradient)"/></svg>