<?xml version="1.0" encoding="UTF-8"?><svg id="_이어_2" xmlns="http://www.w3.org/2000/svg" xmlns:xlink="http://www.w3.org/1999/xlink" viewBox="0 0 280 68.75"><defs><style>.cls-1{fill:#00dbff;}.cls-2{fill:#0086ff;}.cls-3{fill:#fff;}.cls-4{fill:#ffc200;}.cls-5{fill:url(#_제_그라디언트_2);}</style><linearGradient id="_제_그라디언트_2" x1="-162.02" y1="17.6" x2="-91.9" y2="17.6" gradientTransform="translate(262 62.16) scale(1 -1)" gradientUnits="userSpaceOnUse"><stop offset="0" stop-color="#0086ff"/><stop offset="1" stop-color="#00dbff"/></linearGradient></defs><g id="_이어_1-2"><path class="cls-4" d="M52.09,15.76c4.35,0,7.88-3.53,7.88-7.88s-3.53-7.88-7.88-7.88-7.88,3.53-7.88,7.88,3.53,7.88,7.88,7.88Z"/><path class="cls-1" d="M230.32,51.33c5.28,2.77,5.66,10.16,.72,13.5-.3,.2-.6,.4-.91,.59-3.58,2.22-8.06,3.34-13.44,3.34-3.34,0-6.32-.56-8.94-1.67-2.63-1.11-4.87-2.64-6.72-4.59-1.85-1.95-3.27-4.23-4.26-6.86-.99-2.62-1.48-5.42-1.48-8.39,0-3.52,.65-6.89,1.95-10.1,1.3-3.21,3.12-6.07,5.47-8.57,2.35-2.5,5.19-4.5,8.53-5.98,3.34-1.48,7.04-2.22,11.12-2.22,3.34,0,6.26,.51,8.76,1.53,2.5,1.02,4.6,2.39,6.3,4.12,1.7,1.73,2.98,3.74,3.85,6.02,.86,2.29,1.3,4.7,1.3,7.23,0,2.9-.43,5.59-1.3,8.06h-34.2v.93c.12,3.34,1.22,5.79,3.29,7.37,2.07,1.58,4.49,2.36,7.28,2.36,2.97,0,5.47-.57,7.51-1.71,2.04-1.14,3.77-2.8,5.19-4.96Zm.93-12.61v-.37c0-2.1-.82-3.97-2.46-5.61-1.64-1.64-4.12-2.46-7.46-2.46-3.03,0-5.67,.82-7.92,2.46-2.26,1.64-3.82,3.63-4.68,5.98h22.52Z"/><path class="cls-1" d="M194.64,51.33c5.28,2.77,5.66,10.16,.72,13.5-.3,.2-.6,.4-.91,.59-3.58,2.22-8.06,3.34-13.44,3.34-3.34,0-6.32-.56-8.94-1.67-2.63-1.11-4.87-2.64-6.72-4.59-1.85-1.95-3.28-4.23-4.26-6.86-.99-2.62-1.48-5.42-1.48-8.39,0-3.52,.65-6.89,1.95-10.1,1.3-3.21,3.12-6.07,5.47-8.57,2.35-2.5,5.19-4.5,8.53-5.98,3.34-1.48,7.04-2.22,11.12-2.22,3.34,0,6.26,.51,8.76,1.53,2.5,1.02,4.6,2.39,6.3,4.12,1.7,1.73,2.98,3.74,3.85,6.02,.86,2.29,1.3,4.7,1.3,7.23,0,2.9-.43,5.59-1.3,8.06h-34.2v.93c.12,3.34,1.22,5.79,3.29,7.37,2.07,1.58,4.5,2.36,7.28,2.36,2.97,0,5.47-.57,7.51-1.71,2.04-1.14,3.77-2.8,5.19-4.96Zm.93-12.61v-.37c0-2.1-.82-3.97-2.46-5.61-1.64-1.64-4.12-2.46-7.46-2.46-3.03,0-5.67,.82-7.93,2.46-2.26,1.64-3.82,3.63-4.68,5.98h22.52Z"/><path class="cls-2" d="M39.11,28.9c0,6.55-5.31,11.86-11.86,11.86H12.51v14c0,6.91-5.6,12.51-12.51,12.51v-26.16c0-6.75,5.47-12.22,12.22-12.22h26.9Z"/><path class="cls-2" d="M0,15.11C0,7.26,6.36,.9,14.2,.9h27.88c0,7.84-6.36,14.2-14.2,14.2H0Z"/><path class="cls-2" d="M45.97,67.27V33.99c0-6.7,5.44-12.14,12.14-12.14V55.13c0,6.7-5.44,12.14-12.14,12.14Z"/><path class="cls-2" d="M71.74,32.23h-7.97v-2.41c0-4.4,3.57-7.97,7.97-7.97v-1.76c0-6.7,5.44-12.14,12.14-12.14v13.9h24.93v10.38h-24.93v18.15c0,1.08,.11,2.09,.32,3.01,.22,.92,.63,1.7,1.25,2.34,.86,1.02,2.1,1.53,3.71,1.53,1.05,0,1.88-.11,2.5-.32,.62-.21,1.2-.51,1.76-.88l3.43,10.66c-1.42,.68-2.95,1.19-4.59,1.53-1.64,.34-3.45,.51-5.42,.51-2.29,0-4.34-.36-6.16-1.09-1.82-.72-3.35-1.72-4.59-2.98-2.9-2.84-4.36-6.88-4.36-12.11v-20.34h0Z"/><path class="cls-5" d="M109.68,21.85c.2,0,.37,.13,.42,.32l7.34,27.81c.05,.19,.22,.32,.42,.32s.35-.12,.41-.3l8.8-27.85c.06-.18,.22-.3,.41-.3h11.88c.19,0,.35,.12,.41,.3l8.89,27.85c.06,.18,.22,.3,.41,.3s.37-.13,.42-.32c.76-2.92,6.49-24.89,7.25-27.81,.05-.19,.22-.32,.42-.32h12.51c.29,0,.5,.29,.41,.56l-10.48,32.71c-2.32,7.23-9.05,12.15-16.64,12.15-.19,0-.35-.12-.41-.3l-8.89-28.04c-.06-.18-.22-.3-.41-.3h-.02c-.19,0-.35,.12-.41,.3l-5.19,16.36c-2.26,7.13-8.89,11.98-16.37,11.98-.19,0-.35-.12-.41-.3l-10.4-32.46c-2.01-6.26,2.66-12.66,9.24-12.66h0Z"/><path class="cls-1" d="M230.32,51.33c5.28,2.77,5.66,10.16,.72,13.5-.3,.2-.6,.4-.91,.59-3.58,2.22-8.06,3.34-13.44,3.34-3.34,0-6.32-.56-8.94-1.67-2.63-1.11-4.87-2.64-6.72-4.59-1.85-1.95-3.27-4.23-4.26-6.86-.99-2.62-1.48-5.42-1.48-8.39,0-3.52,.65-6.89,1.95-10.1,1.3-3.21,3.12-6.07,5.47-8.57,2.35-2.5,5.19-4.5,8.53-5.98,3.34-1.48,7.04-2.22,11.12-2.22,3.34,0,6.26,.51,8.76,1.53,2.5,1.02,4.6,2.39,6.3,4.12,1.7,1.73,2.98,3.74,3.85,6.02,.86,2.29,1.3,4.7,1.3,7.23,0,2.9-.43,5.59-1.3,8.06h-34.2v.93c.12,3.34,1.22,5.79,3.29,7.37,2.07,1.58,4.49,2.36,7.28,2.36,2.97,0,5.47-.57,7.51-1.71,2.04-1.14,3.77-2.8,5.19-4.96Zm.93-12.61v-.37c0-2.1-.82-3.97-2.46-5.61-1.64-1.64-4.12-2.46-7.46-2.46-3.03,0-5.67,.82-7.92,2.46-2.26,1.64-3.82,3.63-4.68,5.98h22.52Z"/><path class="cls-1" d="M194.64,51.33c5.28,2.77,5.66,10.16,.72,13.5-.3,.2-.6,.4-.91,.59-3.58,2.22-8.06,3.34-13.44,3.34-3.34,0-6.32-.56-8.94-1.67-2.63-1.11-4.87-2.64-6.72-4.59-1.85-1.95-3.28-4.23-4.26-6.86-.99-2.62-1.48-5.42-1.48-8.39,0-3.52,.65-6.89,1.95-10.1,1.3-3.21,3.12-6.07,5.47-8.57,2.35-2.5,5.19-4.5,8.53-5.98,3.34-1.48,7.04-2.22,11.12-2.22,3.34,0,6.26,.51,8.76,1.53,2.5,1.02,4.6,2.39,6.3,4.12,1.7,1.73,2.98,3.74,3.85,6.02,.86,2.29,1.3,4.7,1.3,7.23,0,2.9-.43,5.59-1.3,8.06h-34.2v.93c.12,3.34,1.22,5.79,3.29,7.37,2.07,1.58,4.5,2.36,7.28,2.36,2.97,0,5.47-.57,7.51-1.71,2.04-1.14,3.77-2.8,5.19-4.96Zm.93-12.61v-.37c0-2.1-.82-3.97-2.46-5.61-1.64-1.64-4.12-2.46-7.46-2.46-3.03,0-5.67,.82-7.93,2.46-2.26,1.64-3.82,3.63-4.68,5.98h22.52Z"/><path class="cls-1" d="M249.88,27.71h.74c1.6-2.35,3.71-4.17,6.3-5.47,2.6-1.3,5.47-1.95,8.62-1.95,2.35,0,4.42,.39,6.21,1.16,1.79,.77,3.3,1.81,4.54,3.1,1.23,1.3,2.16,2.83,2.78,4.59,.62,1.76,.93,3.63,.93,5.61,0,.87-.03,1.76-.09,2.69-.06,.93-.19,1.92-.37,2.97l-2.69,14.93c-1.24,6.86-7.21,11.86-14.18,11.86l4.63-26.04c.06-.31,.11-.72,.14-1.25,.03-.52,.05-1.03,.05-1.53,0-1.98-.59-3.61-1.76-4.91-1.18-1.3-2.94-1.95-5.28-1.95-1.85,0-3.49,.34-4.91,1.02-1.42,.68-2.66,1.62-3.71,2.83-1.05,1.2-1.92,2.63-2.6,4.26-.68,1.64-1.21,3.41-1.58,5.33l-1.8,10.28c-1.21,6.91-7.21,11.96-14.24,11.96l6-34.19c1.14-6.49,6.78-11.23,13.37-11.23l-1.11,5.93Z"/><path class="cls-2" d="M39.11,28.9c0,6.55-5.31,11.86-11.86,11.86H12.51v14c0,6.91-5.6,12.51-12.51,12.51v-26.16c0-6.75,5.47-12.22,12.22-12.22h26.9Z"/><path class="cls-2" d="M45.97,67.27V33.99c0-6.7,5.44-12.14,12.14-12.14V55.13c0,6.7-5.44,12.14-12.14,12.14Z"/><path class="cls-2" d="M71.74,32.23h-7.97v-2.41c0-4.4,3.57-7.97,7.97-7.97v-1.76c0-6.7,5.44-12.14,12.14-12.14v13.9h24.93v10.38h-24.93v18.15c0,1.08,.11,2.09,.32,3.01,.22,.92,.63,1.7,1.25,2.34,.86,1.02,2.1,1.53,3.71,1.53,1.05,0,1.88-.11,2.5-.32,.62-.21,1.2-.51,1.76-.88l3.43,10.66c-1.42,.68-2.95,1.19-4.59,1.53-1.64,.34-3.45,.51-5.42,.51-2.29,0-4.34-.36-6.16-1.09-1.82-.72-3.35-1.72-4.59-2.98-2.9-2.84-4.36-6.88-4.36-12.11v-20.34h0Z"/><path class="cls-5" d="M109.68,21.85c.2,0,.37,.13,.42,.32l7.34,27.81c.05,.19,.22,.32,.42,.32s.35-.12,.41-.3l8.8-27.85c.06-.18,.22-.3,.41-.3h11.88c.19,0,.35,.12,.41,.3l8.89,27.85c.06,.18,.22,.3,.41,.3s.37-.13,.42-.32c.76-2.92,6.49-24.89,7.25-27.81,.05-.19,.22-.32,.42-.32h12.51c.29,0,.5,.29,.41,.56l-10.48,32.71c-2.32,7.23-9.05,12.15-16.64,12.15-.19,0-.35-.12-.41-.3l-8.89-28.04c-.06-.18-.22-.3-.41-.3h-.02c-.19,0-.35,.12-.41,.3l-5.19,16.36c-2.26,7.13-8.89,11.98-16.37,11.98-.19,0-.35-.12-.41-.3l-10.4-32.46c-2.01-6.26,2.66-12.66,9.24-12.66h0Z"/><g><path class="cls-3" d="M181.79,15.9l-.59-12.85h1.01l.38,8.8c.01,.42,.01,.85,0,1.3s-.01,.88-.03,1.3h.05c.16-.4,.33-.82,.51-1.28,.19-.46,.4-.93,.64-1.42l4.12-8.69h1.04l.5,8.68c.02,.46,.04,.93,.05,1.43,.01,.5,.02,.94,.02,1.32h.05c.14-.4,.3-.81,.46-1.25s.35-.89,.57-1.36l3.92-8.82h1.1l-5.85,12.85h-1.01l-.54-9.36c-.02-.36-.04-.72-.04-1.07,0-.35,0-.7,0-1.04h-.05c-.11,.32-.22,.63-.35,.92-.12,.29-.28,.63-.46,1.03l-4.48,9.52h-1.03Z"/><path class="cls-3" d="M194.79,15.9l2.03-9.58h1.03l-2.04,9.58h-1.03Zm3.08-11.56c-.19,0-.35-.05-.46-.16-.11-.11-.17-.26-.17-.47,0-.23,.07-.44,.2-.64,.13-.2,.33-.3,.59-.3,.22,0,.37,.06,.47,.17,.1,.11,.14,.26,.14,.44,0,.26-.07,.49-.22,.67-.15,.19-.33,.28-.55,.28Z"/><path class="cls-3" d="M198.95,15.9l2.05-9.61h.9l-.36,2.14h.04c.21-.34,.47-.68,.81-1.04s.74-.66,1.21-.91,.99-.38,1.57-.38c.78,0,1.39,.21,1.82,.62s.65,1,.65,1.77c0,.23-.02,.47-.05,.71-.04,.25-.08,.47-.12,.67l-1.28,6.01h-1.08l1.3-6.14c.05-.24,.09-.45,.12-.63,.03-.18,.04-.35,.04-.52,0-.52-.14-.9-.42-1.16-.28-.26-.69-.39-1.21-.39s-1.06,.17-1.58,.51c-.53,.34-1,.83-1.41,1.48-.41,.64-.72,1.41-.91,2.29l-.97,4.55h-1.08Z"/><path class="cls-3" d="M209.21,11.52l.22-.95h4.19l-.2,.95h-4.21Z"/><path class="cls-3" d="M216.95,15.9l-.59-12.85h1.01l.38,8.8c.01,.42,.02,.85,0,1.3s-.02,.88-.03,1.3h.05c.16-.4,.33-.82,.51-1.28,.19-.46,.4-.93,.64-1.42l4.12-8.69h1.04l.5,8.68c.02,.46,.04,.93,.05,1.43s.02,.94,.02,1.32h.05c.14-.4,.3-.81,.46-1.25s.35-.89,.57-1.36l3.92-8.82h1.1l-5.85,12.85h-1.01l-.54-9.36c-.02-.36-.04-.72-.04-1.07,0-.35,0-.7,0-1.04h-.05c-.11,.32-.23,.63-.35,.92-.13,.29-.28,.63-.46,1.03l-4.48,9.52h-1.03Z"/><path class="cls-3" d="M229.94,15.9l2.03-9.58h1.03l-2.03,9.58h-1.03Zm3.08-11.56c-.19,0-.35-.05-.46-.16-.11-.11-.17-.26-.17-.47,0-.23,.07-.44,.2-.64,.13-.2,.33-.3,.59-.3,.22,0,.37,.06,.47,.17,.1,.11,.14,.26,.14,.44,0,.26-.07,.49-.22,.67-.15,.19-.33,.28-.55,.28Z"/><path class="cls-3" d="M234.1,15.9l2.05-9.61h.9l-.36,2.14h.04c.2-.34,.47-.68,.81-1.04,.33-.35,.74-.66,1.21-.91,.47-.25,.99-.38,1.57-.38,.78,0,1.39,.21,1.82,.62,.43,.41,.65,1,.65,1.77,0,.23-.02,.47-.05,.71s-.08,.47-.13,.67l-1.28,6.01h-1.08l1.3-6.14c.05-.24,.09-.45,.12-.63,.03-.18,.04-.35,.04-.52,0-.52-.14-.9-.42-1.16-.28-.26-.69-.39-1.21-.39s-1.06,.17-1.58,.51-1,.83-1.41,1.48c-.41,.64-.72,1.41-.91,2.29l-.97,4.55h-1.08Z"/><path class="cls-3" d="M249.96,15.9l-.49-9.58h1.01l.27,5.92c.01,.55,.02,1.04,.02,1.47s0,.79-.02,1.11h.05c.12-.32,.27-.69,.46-1.11,.19-.41,.39-.86,.62-1.32l3.01-6.07h1.04l.5,5.92c.02,.46,.04,.91,.06,1.35,.02,.44,.03,.85,.03,1.22h.05c.12-.36,.27-.77,.46-1.22,.19-.46,.41-.98,.67-1.57l2.65-5.71h1.08l-4.48,9.58h-1.17l-.49-6.12c-.04-.38-.06-.75-.06-1.1,0-.35-.02-.74-.03-1.19h-.04c-.17,.38-.32,.74-.46,1.06s-.31,.7-.53,1.13l-3.08,6.21h-1.15Z"/><path class="cls-3" d="M261.37,15.9l2.03-9.58h1.03l-2.03,9.58h-1.03Zm3.08-11.56c-.19,0-.35-.05-.46-.16-.11-.11-.17-.26-.17-.47,0-.23,.07-.44,.2-.64,.13-.2,.33-.3,.59-.3,.22,0,.37,.06,.47,.17,.1,.11,.14,.26,.14,.44,0,.26-.07,.49-.22,.67-.15,.19-.33,.28-.55,.28Z"/><path class="cls-3" d="M268.01,16.08c-.62,0-1.12-.15-1.48-.45-.36-.3-.54-.78-.54-1.44,0-.36,.05-.74,.14-1.15l1.24-5.89h-1.44l.13-.56,1.49-.38,.86-2.18h.67l-.5,2.29h2.68l-.18,.83h-2.66l-1.24,5.87c-.05,.18-.08,.36-.11,.55-.02,.19-.04,.36-.04,.51,0,.35,.08,.62,.25,.82s.45,.3,.85,.3c.25,0,.48-.02,.69-.06s.42-.1,.64-.17v.83c-.17,.07-.38,.14-.65,.2-.26,.06-.53,.09-.81,.09Z"/><path class="cls-3" d="M271.34,15.9l2.9-13.68h1.03l-.77,3.6c-.08,.43-.18,.88-.3,1.33-.11,.46-.22,.89-.33,1.31h.05c.22-.34,.5-.68,.84-1.04,.34-.36,.74-.66,1.21-.91s.98-.37,1.56-.37c.77,0,1.37,.2,1.79,.61,.43,.41,.64,1.01,.64,1.8,0,.2-.01,.42-.04,.64-.03,.22-.07,.45-.12,.69l-1.28,6.01h-1.03l1.3-6.14c.1-.44,.14-.82,.14-1.12,0-1.08-.55-1.62-1.66-1.62-.54,0-1.08,.17-1.61,.52-.53,.35-1.01,.84-1.42,1.48-.41,.64-.71,1.41-.89,2.31l-.97,4.55h-1.03Z"/></g></g></svg>